<svg width="21" height="45" viewBox="0 0 21 45" fill="none" xmlns="http://www.w3.org/2000/svg">
<path d="M6.32812 9.70312C7.20312 10.5781 8.26562 11.0156 9.51562 11.0156C10.7656 11.0156 11.8281 10.5781 12.7031 9.70312C13.5781 8.82812 14.0156 7.76562 14.0156 6.51562C14.0156 5.26562 13.5781 4.20313 12.7031 3.32812C11.8281 2.45312 10.7656 2.01562 9.51562 2.01562C8.26562 2.01562 7.20312 2.45312 6.32812 3.32812C5.45312 4.20313 5.01562 5.26562 5.01562 6.51562C5.01562 7.76562 5.45312 8.82812 6.32812 9.70312ZM15.5156 11.0156L20.4844 15.9844L18.9844 17.4844L14.0156 12.5156V11.7188L13.7344 11.4375C12.5469 12.4688 11.1406 12.9844 9.51562 12.9844C7.70312 12.9844 6.15625 12.3594 4.875 11.1094C3.625 9.85938 3 8.32812 3 6.51562C3 4.70312 3.625 3.17188 4.875 1.92188C6.15625 0.640625 7.70312 0 9.51562 0C11.3281 0 12.8594 0.640625 14.1094 1.92188C15.3594 3.17188 15.9844 4.70312 15.9844 6.51562C15.9844 7.17188 15.8281 7.92188 15.5156 8.76562C15.2031 9.57812 14.8438 10.2344 14.4375 10.7344L14.7188 11.0156H15.5156Z" fill="black"/>
</svg>
